<?xml version="1.0" encoding="utf-8"?>
<svg viewBox="19.468 69.144 865.102 253.592" xmlns="http://www.w3.org/2000/svg">
  <g id="svgGroup" stroke-linecap="round" fill-rule="evenodd" font-size="9pt" stroke="#000" stroke-width="0.25mm" fill="black" style="stroke:#000;stroke-width:0.25mm;fill:black" transform="matrix(1, 0, 0, 1, 52.681298, 100.513162)">
    <path d="M 232.329 149.564 L 259.135 147.22 A 76.639 76.639 0 0 0 261.455 159.142 Q 263.278 165.566 266.195 170.738 A 43.261 43.261 0 0 0 267.997 173.661 A 40.751 40.751 0 0 0 277.734 183.645 Q 282.132 186.891 287.737 189.517 A 73.747 73.747 0 0 0 289.604 190.36 A 76.605 76.605 0 0 0 311.342 196.094 A 96.082 96.082 0 0 0 322.563 196.732 A 93.17 93.17 0 0 0 336.97 195.67 A 68.839 68.839 0 0 0 351.274 191.898 A 52.192 52.192 0 0 0 359.716 187.768 Q 364.58 184.78 367.955 180.954 A 30.323 30.323 0 0 0 369.804 178.641 Q 375.883 170.218 375.883 160.257 A 29.322 29.322 0 0 0 373.872 149.293 A 27.439 27.439 0 0 0 370.024 142.606 Q 365.697 137.034 357.215 132.781 A 70.472 70.472 0 0 0 350.688 129.935 A 80.075 80.075 0 0 0 345.904 128.282 Q 337.994 125.778 322.589 121.938 A 1205.973 1205.973 0 0 0 312.455 119.461 A 441.355 441.355 0 0 1 298.768 115.959 Q 285.704 112.375 277.419 109.007 A 70.056 70.056 0 0 1 271 106.058 A 71.228 71.228 0 0 1 259.418 98.569 A 51.011 51.011 0 0 1 248.076 86.063 A 49.004 49.004 0 0 1 240.532 59.329 A 54.578 54.578 0 0 1 249.76 28.934 A 54.349 54.349 0 0 1 268.749 11.351 A 70.254 70.254 0 0 1 276.713 7.474 Q 294.438 0.15 316.118 0.15 A 126.317 126.317 0 0 1 337.263 1.84 A 94.486 94.486 0 0 1 358.232 7.84 A 66.437 66.437 0 0 1 375.124 17.968 A 56.884 56.884 0 0 1 386.284 30.472 A 64.756 64.756 0 0 1 396.776 63.133 A 76.821 76.821 0 0 1 396.83 64.31 L 369.584 66.361 A 58.861 58.861 0 0 0 366.745 53.275 Q 362.933 42.343 354.716 35.599 A 40.445 40.445 0 0 0 341.874 28.675 Q 336.096 26.719 329.039 25.864 A 97.807 97.807 0 0 0 317.289 25.199 Q 291.508 25.199 279.716 34.647 A 35.189 35.189 0 0 0 272.764 41.939 A 26.473 26.473 0 0 0 267.924 57.425 A 26.135 26.135 0 0 0 269.852 67.599 A 24.529 24.529 0 0 0 276.274 76.468 Q 283.419 82.975 310.624 89.76 A 398.637 398.637 0 0 0 319.121 91.776 Q 352.572 99.343 365.742 105.066 A 59.978 59.978 0 0 1 366.655 105.472 A 85.296 85.296 0 0 1 379.337 112.603 Q 388.756 119.086 394.34 127.371 A 52.532 52.532 0 0 1 403.184 154.444 A 64.605 64.605 0 0 1 403.276 157.913 A 58.301 58.301 0 0 1 393.766 189.739 A 69.717 69.717 0 0 1 393.461 190.213 A 62.019 62.019 0 0 1 372.896 209.79 A 78.099 78.099 0 0 1 365.263 213.797 A 92.629 92.629 0 0 1 337.13 221.478 A 115.314 115.314 0 0 1 323.881 222.22 Q 294.731 222.22 275.029 213.724 A 69.932 69.932 0 0 1 251.096 197.084 A 67.833 67.833 0 0 1 244.121 188.162 A 72.338 72.338 0 0 1 232.349 150.236 A 86.039 86.039 0 0 1 232.329 149.564 Z M 469.34 218.558 L 440.922 218.558 L 440.922 3.812 L 469.34 3.812 L 469.34 110.306 L 575.981 3.812 L 614.506 3.812 L 524.418 90.824 L 618.461 218.558 L 580.961 218.558 L 504.497 109.867 L 469.34 144.144 L 469.34 218.558 Z M 671.049 218.558 L 642.631 218.558 L 642.631 3.812 L 737.846 3.812 A 231.168 231.168 0 0 1 752.907 4.27 Q 767.778 5.244 777.713 8.292 A 55.86 55.86 0 0 1 781.498 9.598 A 47.28 47.28 0 0 1 804.226 28.222 A 59.009 59.009 0 0 1 805.375 30.033 A 60.964 60.964 0 0 1 814.311 62.406 A 58.264 58.264 0 0 1 810.612 83.463 A 52.933 52.933 0 0 1 799.516 100.931 Q 787.755 113.391 765.812 118.63 A 124.959 124.959 0 0 1 753.813 120.853 Q 761.154 124.381 766.2 127.846 A 46.249 46.249 0 0 1 770.952 131.546 A 129.74 129.74 0 0 1 784.176 145.752 A 173.075 173.075 0 0 1 794.536 160.111 L 831.889 218.558 L 796.147 218.558 L 767.729 173.88 Q 757.466 157.943 750.189 148.176 A 191.233 191.233 0 0 0 747.221 144.29 Q 739.755 134.788 733.736 130.57 A 28.867 28.867 0 0 0 732.792 129.935 A 45.499 45.499 0 0 0 724.741 125.781 A 38.752 38.752 0 0 0 719.829 124.222 Q 714.995 123.197 704.008 123.197 L 671.049 123.197 L 671.049 218.558 Z M 28.715 30.252 A 93.754 93.754 0 0 0 19.822 41.153 Q 0.004 69.547 0.004 113.968 A 121.194 121.194 0 0 0 12.309 167.581 A 94.265 94.265 0 0 0 48.491 207.572 A 96.654 96.654 0 0 0 68.18 216.798 A 107.217 107.217 0 0 0 102.69 222.22 Q 130.668 222.22 154.838 208.963 A 90.007 90.007 0 0 0 192.192 169.925 A 115.767 115.767 0 0 0 201.433 145.147 A 138.713 138.713 0 0 0 205.375 111.478 A 152.269 152.269 0 0 0 204.378 93.83 A 121.626 121.626 0 0 0 192.851 53.836 Q 180.327 28.421 156.45 14.212 A 98.946 98.946 0 0 0 139.342 6.123 A 106.937 106.937 0 0 0 102.836 0.003 A 129.632 129.632 0 0 0 94.469 0.269 A 95.807 95.807 0 0 0 28.715 30.252 Z M 29.301 114.408 Q 29.301 153.226 50.175 175.565 A 68.263 68.263 0 0 0 99.614 197.855 A 86.756 86.756 0 0 0 102.543 197.904 A 74.413 74.413 0 0 0 130.124 192.947 A 67.928 67.928 0 0 0 155.351 175.345 Q 173.492 155.601 175.756 121.382 A 152.319 152.319 0 0 0 176.079 111.331 A 131.298 131.298 0 0 0 174.259 88.937 A 96.126 96.126 0 0 0 167.216 65.555 A 70.823 70.823 0 0 0 152.495 44.106 A 66.206 66.206 0 0 0 141.289 35.233 A 70.227 70.227 0 0 0 103.314 24.467 A 83.605 83.605 0 0 0 102.983 24.466 Q 72.807 24.466 51.054 45.194 Q 29.494 65.737 29.303 113.55 A 214.498 214.498 0 0 0 29.301 114.408 Z M 671.049 27.542 L 671.049 98.587 L 732.133 98.587 A 152.622 152.622 0 0 0 743.48 98.194 Q 754.185 97.393 761.451 94.962 A 42.643 42.643 0 0 0 762.602 94.559 A 36.026 36.026 0 0 0 772.139 89.423 A 30.43 30.43 0 0 0 779.301 81.668 A 34.866 34.866 0 0 0 785.014 62.406 A 34.187 34.187 0 0 0 782.461 49.018 A 32.215 32.215 0 0 0 773.955 37.357 Q 762.895 27.542 739.018 27.542 L 671.049 27.542 Z" vector-effect="non-scaling-stroke" style="fill: rgb(0, 61, 124); stroke: none; stroke-width: 1px;"/>
  </g>
  <g transform="matrix(1.626251, 0, 0, 1.626251, 18.94542, 67.326051)" style="filter: none;">
    <path d="M100.93,80.4c22.8-1.34,26.68-20.92,26.71-21.12c0.1-0.54-0.22-1.08-0.74-1.25l-5.92-1.91l4.71-3.89 c0.46-0.38,0.54-1.06,0.17-1.54c-0.29-0.38-7.43-9.34-22.12-9.34c-5.56,0-11.5,1.32-17.67,3.91c-1.34,0.56-2.66,1.22-3.98,1.97 c1.82-2.74,3.21-5.58,4.16-8.49c8.83-27.05-9.45-35.97-9.64-36.06c-0.46-0.21-1-0.1-1.31,0.29l-4.02,4.77l-1.84-5.85 c-0.16-0.5-0.61-0.8-1.16-0.77c-0.22,0.02-22.17,2.32-21.01,30.95c0.17,4.13,0.99,8.55,2.45,13.17 c-3.62-5.62-7.67-9.74-12.07-12.29c-5.82-3.37-11.71-5.08-17.49-5.08c-9.09,0-14.65,4.21-14.89,4.39 c-0.48,0.37-0.57,1.06-0.21,1.54l3.72,4.97l-6.81,0c-0.49,0-0.92,0.32-1.06,0.79c-0.09,0.31-2.16,7.65,2.04,15.21 c3.36,6.05,9.7,10.43,18.86,12.99c4.54,1.27,9.93,1.89,16.29,1.9c-7.79,1.28-13.97,3.77-18.4,7.41C0.8,92.6,8.2,108.41,8.28,108.56 c0.22,0.44,0.71,0.7,1.18,0.61l6.19-1.08l-2.37,5.7c-0.22,0.52,0,1.13,0.5,1.4c0.21,0.11,5.17,2.72,12.3,2.72 c6.88,0,17-2.53,26.14-14.58c2.51-3.32,4.48-7.26,5.88-11.75c-0.06,5.4,0.77,10.01,2.51,13.77c9,19.45,23.1,21.54,28.74,21.54 c2.22,0,3.62-0.3,3.67-0.31c0.52-0.11,0.89-0.59,0.87-1.12l-0.21-6.14l5.19,3.06c0.49,0.29,1.12,0.16,1.46-0.3 c0.13-0.18,13.04-18.3-6.15-38.23c-1.39-1.45-2.98-2.8-4.73-4.06C93.4,80.41,97.16,80.63,100.93,80.4z" style="paint-order: fill; fill-rule: nonzero; fill: rgb(239, 124, 0);"/>
    <g>
      <path d="M58.6,74.92c-0.67,2.53-4.14,3.85-6.39,2.43c-1.72-1.08-2.26-3.41-1.22-5.13 c0.95-1.58,2.85-2.4,4.64-2.1C57.8,70.49,59.15,72.82,58.6,74.92z" style="paint-order: fill; fill-rule: nonzero; fill: rgb(255, 255, 255);"/>
      <path d="M55.39,63.9c-0.67,2.53-4.13,3.85-6.39,2.43c-1.72-1.08-2.26-3.41-1.22-5.13 c0.95-1.57,2.85-2.4,4.64-2.1C54.59,59.46,55.95,61.8,55.39,63.9z" style="paint-order: fill; fill-rule: nonzero; fill: rgb(255, 255, 255);"/>
      <path d="M58.39,53.17c0.95-1.57,2.85-2.4,4.64-2.1c2.17,0.37,3.53,2.7,2.98,4.8 c-0.67,2.53-4.14,3.85-6.39,2.43C57.9,57.22,57.36,54.9,58.39,53.17z" style="paint-order: fill; fill-rule: nonzero; fill: rgb(255, 255, 255);"/>
      <path d="M72.16,75.92c-0.67,2.53-4.13,3.85-6.39,2.43c-1.72-1.08-2.26-3.41-1.22-5.13 c0.94-1.58,2.85-2.41,4.63-2.1C71.35,71.49,72.71,73.82,72.16,75.92z" style="paint-order: fill; fill-rule: nonzero; fill: rgb(255, 255, 255);"/>
      <path d="M76.21,63.36c-0.67,2.53-4.13,3.85-6.38,2.43c-1.73-1.08-2.26-3.41-1.22-5.13 c0.94-1.58,2.85-2.4,4.64-2.1C75.41,58.92,76.77,61.26,76.21,63.36z" style="paint-order: fill; fill-rule: nonzero; fill: rgb(255, 255, 255);"/>
    </g>
  </g>
</svg>