<?xml version="1.0" encoding="UTF-8" standalone="no"?>
<!DOCTYPE svg PUBLIC "-//W3C//DTD SVG 1.1//EN"
 "http://www.w3.org/Graphics/SVG/1.1/DTD/svg11.dtd">
<!-- Generated by graphviz version 2.43.0 (0)
 -->
<!-- Title: oscar::App Pages: 1 -->
<svg width="228pt" height="84pt"
 viewBox="0.00 0.00 228.00 84.00" xmlns="http://www.w3.org/2000/svg" xmlns:xlink="http://www.w3.org/1999/xlink">
<g id="graph0" class="graph" transform="scale(1 1) rotate(0) translate(4 80)">
<title>oscar::App</title>
<!-- Node1 -->
<g id="node1" class="node">
<title>Node1</title>
<g id="a_node1"><a xlink:title=" ">
<polygon fill="#bfbfbf" stroke="black" points="71,-56.5 71,-75.5 148,-75.5 148,-56.5 71,-56.5"/>
<text text-anchor="middle" x="109.5" y="-63.5" font-family="Consolas" font-size="10.00">oscar::App</text>
</a>
</g>
</g>
<!-- Node2 -->
<g id="node2" class="node">
<title>Node2</title>
<g id="a_node2"><a xlink:href="classoscar_1_1MockApp.html" target="_top" xlink:title=" ">
<polygon fill="none" stroke="black" points="0,-0.5 0,-19.5 101,-19.5 101,-0.5 0,-0.5"/>
<text text-anchor="middle" x="50.5" y="-7.5" font-family="Consolas" font-size="10.00">oscar::MockApp</text>
</a>
</g>
</g>
<!-- Node1&#45;&gt;Node2 -->
<g id="edge1" class="edge">
<title>Node1&#45;&gt;Node2</title>
<path fill="none" stroke="midnightblue" d="M92.61,-49.54C82.09,-39.91 68.93,-27.87 60.15,-19.83"/>
<polygon fill="midnightblue" stroke="midnightblue" points="90.28,-52.15 100.02,-56.32 95.01,-46.99 90.28,-52.15"/>
</g>
<!-- Node3 -->
<g id="node3" class="node">
<title>Node3</title>
<g id="a_node3"><a xlink:href="classoscar_1_1NullApp.html" target="_top" xlink:title=" ">
<polygon fill="none" stroke="black" points="119,-0.5 119,-19.5 220,-19.5 220,-0.5 119,-0.5"/>
<text text-anchor="middle" x="169.5" y="-7.5" font-family="Consolas" font-size="10.00">oscar::NullApp</text>
</a>
</g>
</g>
<!-- Node1&#45;&gt;Node3 -->
<g id="edge2" class="edge">
<title>Node1&#45;&gt;Node3</title>
<path fill="none" stroke="midnightblue" d="M126.68,-49.54C137.38,-39.91 150.76,-27.87 159.68,-19.83"/>
<polygon fill="midnightblue" stroke="midnightblue" points="124.23,-47.03 119.14,-56.32 128.91,-52.24 124.23,-47.03"/>
</g>
</g>
</svg>
