<?xml version="1.0" encoding="UTF-8" standalone="no"?>
<!DOCTYPE svg PUBLIC "-//W3C//DTD SVG 1.1//EN"
 "http://www.w3.org/Graphics/SVG/1.1/DTD/svg11.dtd">
<!-- Generated by graphviz version 2.43.0 (0)
 -->
<!-- Title: oscar::BasicClient&lt; Transport, ReplicaMessage &gt; Pages: 1 -->
<svg width="199pt" height="162pt"
 viewBox="0.00 0.00 199.00 162.00" xmlns="http://www.w3.org/2000/svg" xmlns:xlink="http://www.w3.org/1999/xlink">
<g id="graph0" class="graph" transform="scale(1 1) rotate(0) translate(4 158)">
<title>oscar::BasicClient&lt; Transport, ReplicaMessage &gt;</title>
<!-- Node1 -->
<g id="node1" class="node">
<title>Node1</title>
<g id="a_node1"><a xlink:title=" ">
<polygon fill="#bfbfbf" stroke="black" points="0,-0.5 0,-30.5 191,-30.5 191,-0.5 0,-0.5"/>
<text text-anchor="start" x="8" y="-18.5" font-family="Consolas" font-size="10.00">oscar::BasicClient</text>
<text text-anchor="middle" x="95.5" y="-7.5" font-family="Consolas" font-size="10.00">&lt; Transport, ReplicaMessage &gt;</text>
</a>
</g>
</g>
<!-- Node2 -->
<g id="node2" class="node">
<title>Node2</title>
<g id="a_node2"><a xlink:href="classoscar_1_1Client.html" target="_top" xlink:title=" ">
<polygon fill="none" stroke="black" points="9,-67.5 9,-86.5 182,-86.5 182,-67.5 9,-67.5"/>
<text text-anchor="middle" x="95.5" y="-74.5" font-family="Consolas" font-size="10.00">oscar::Client&lt; Transport &gt;</text>
</a>
</g>
</g>
<!-- Node2&#45;&gt;Node1 -->
<g id="edge1" class="edge">
<title>Node2&#45;&gt;Node1</title>
<path fill="none" stroke="midnightblue" d="M95.5,-57.23C95.5,-48.59 95.5,-38.5 95.5,-30.52"/>
<polygon fill="midnightblue" stroke="midnightblue" points="92,-57.48 95.5,-67.48 99,-57.48 92,-57.48"/>
</g>
<!-- Node3 -->
<g id="node3" class="node">
<title>Node3</title>
<g id="a_node3"><a xlink:href="classoscar_1_1TransportReceiver.html" target="_top" xlink:title=" ">
<polygon fill="none" stroke="black" points="15,-123.5 15,-153.5 176,-153.5 176,-123.5 15,-123.5"/>
<text text-anchor="start" x="23" y="-141.5" font-family="Consolas" font-size="10.00">oscar::TransportReceiver</text>
<text text-anchor="middle" x="95.5" y="-130.5" font-family="Consolas" font-size="10.00">&lt; Transport &gt;</text>
</a>
</g>
</g>
<!-- Node3&#45;&gt;Node2 -->
<g id="edge2" class="edge">
<title>Node3&#45;&gt;Node2</title>
<path fill="none" stroke="midnightblue" d="M95.5,-113.29C95.5,-103.86 95.5,-93.65 95.5,-86.66"/>
<polygon fill="midnightblue" stroke="midnightblue" points="92,-113.4 95.5,-123.4 99,-113.4 92,-113.4"/>
</g>
</g>
</svg>
