<?xml version="1.0" encoding="UTF-8" standalone="no"?>
<!DOCTYPE svg PUBLIC "-//W3C//DTD SVG 1.1//EN"
 "http://www.w3.org/Graphics/SVG/1.1/DTD/svg11.dtd">
<!-- Generated by graphviz version 2.43.0 (0)
 -->
<!-- Title: Graphical Class Hierarchy Pages: 1 -->
<svg width="605pt" height="39pt"
 viewBox="0.00 0.00 605.00 39.00" xmlns="http://www.w3.org/2000/svg" xmlns:xlink="http://www.w3.org/1999/xlink">
<g id="graph0" class="graph" transform="scale(1 1) rotate(0) translate(4 35)">
<title>Graphical Class Hierarchy</title>
<!-- Node0 -->
<g id="node1" class="node">
<title>Node0</title>
<g id="a_node1"><a xlink:href="classoscar_1_1TransportReceiver.html" target="_top" xlink:title=" ">
<polygon fill="none" stroke="black" points="0,-0.5 0,-30.5 161,-30.5 161,-0.5 0,-0.5"/>
<text text-anchor="start" x="8" y="-18.5" font-family="Consolas" font-size="10.00">oscar::TransportReceiver</text>
<text text-anchor="middle" x="80.5" y="-7.5" font-family="Consolas" font-size="10.00">&lt; Transport &gt;</text>
</a>
</g>
</g>
<!-- Node1 -->
<g id="node2" class="node">
<title>Node1</title>
<g id="a_node2"><a xlink:href="classoscar_1_1Client.html" target="_top" xlink:title=" ">
<polygon fill="none" stroke="black" points="197,-6 197,-25 370,-25 370,-6 197,-6"/>
<text text-anchor="middle" x="283.5" y="-13" font-family="Consolas" font-size="10.00">oscar::Client&lt; Transport &gt;</text>
</a>
</g>
</g>
<!-- Node0&#45;&gt;Node1 -->
<g id="edge1" class="edge">
<title>Node0&#45;&gt;Node1</title>
<path fill="none" stroke="midnightblue" d="M171.48,-15.5C179.94,-15.5 188.5,-15.5 196.92,-15.5"/>
<polygon fill="midnightblue" stroke="midnightblue" points="171.23,-12 161.23,-15.5 171.23,-19 171.23,-12"/>
</g>
<!-- Node2 -->
<g id="node3" class="node">
<title>Node2</title>
<g id="a_node3"><a xlink:href="classoscar_1_1BasicClient.html" target="_top" xlink:title=" ">
<polygon fill="none" stroke="black" points="406,-0.5 406,-30.5 597,-30.5 597,-0.5 406,-0.5"/>
<text text-anchor="start" x="414" y="-18.5" font-family="Consolas" font-size="10.00">oscar::BasicClient</text>
<text text-anchor="middle" x="501.5" y="-7.5" font-family="Consolas" font-size="10.00">&lt; Transport, ReplicaMessage &gt;</text>
</a>
</g>
</g>
<!-- Node1&#45;&gt;Node2 -->
<g id="edge2" class="edge">
<title>Node1&#45;&gt;Node2</title>
<path fill="none" stroke="midnightblue" d="M380.37,-15.5C388.77,-15.5 397.28,-15.5 405.67,-15.5"/>
<polygon fill="midnightblue" stroke="midnightblue" points="380.18,-12 370.18,-15.5 380.18,-19 380.18,-12"/>
</g>
</g>
</svg>
