<?xml version="1.0" encoding="UTF-8" standalone="no"?>
<!DOCTYPE svg PUBLIC "-//W3C//DTD SVG 1.1//EN"
 "http://www.w3.org/Graphics/SVG/1.1/DTD/svg11.dtd">
<!-- Generated by graphviz version 2.43.0 (0)
 -->
<!-- Title: Graphical Class Hierarchy Pages: 1 -->
<svg width="222pt" height="66pt"
 viewBox="0.00 0.00 222.00 66.00" xmlns="http://www.w3.org/2000/svg" xmlns:xlink="http://www.w3.org/1999/xlink">
<g id="graph0" class="graph" transform="scale(1 1) rotate(0) translate(4 62)">
<title>Graphical Class Hierarchy</title>
<!-- Node0 -->
<g id="node1" class="node">
<title>Node0</title>
<g id="a_node1"><a xlink:href="classoscar_1_1App.html" target="_top" xlink:title=" ">
<polygon fill="none" stroke="black" points="0,-19.5 0,-38.5 77,-38.5 77,-19.5 0,-19.5"/>
<text text-anchor="middle" x="38.5" y="-26.5" font-family="Consolas" font-size="10.00">oscar::App</text>
</a>
</g>
</g>
<!-- Node1 -->
<g id="node2" class="node">
<title>Node1</title>
<g id="a_node2"><a xlink:href="classoscar_1_1MockApp.html" target="_top" xlink:title=" ">
<polygon fill="none" stroke="black" points="113,-38.5 113,-57.5 214,-57.5 214,-38.5 113,-38.5"/>
<text text-anchor="middle" x="163.5" y="-45.5" font-family="Consolas" font-size="10.00">oscar::MockApp</text>
</a>
</g>
</g>
<!-- Node0&#45;&gt;Node1 -->
<g id="edge1" class="edge">
<title>Node0&#45;&gt;Node1</title>
<path fill="none" stroke="midnightblue" d="M87.15,-36.36C95.6,-37.67 104.41,-39.03 112.91,-40.34"/>
<polygon fill="midnightblue" stroke="midnightblue" points="87.49,-32.87 77.07,-34.8 86.42,-39.79 87.49,-32.87"/>
</g>
<!-- Node2 -->
<g id="node3" class="node">
<title>Node2</title>
<g id="a_node3"><a xlink:href="classoscar_1_1NullApp.html" target="_top" xlink:title=" ">
<polygon fill="none" stroke="black" points="113,-0.5 113,-19.5 214,-19.5 214,-0.5 113,-0.5"/>
<text text-anchor="middle" x="163.5" y="-7.5" font-family="Consolas" font-size="10.00">oscar::NullApp</text>
</a>
</g>
</g>
<!-- Node0&#45;&gt;Node2 -->
<g id="edge2" class="edge">
<title>Node0&#45;&gt;Node2</title>
<path fill="none" stroke="midnightblue" d="M87.15,-21.64C95.6,-20.33 104.41,-18.97 112.91,-17.66"/>
<polygon fill="midnightblue" stroke="midnightblue" points="86.42,-18.21 77.07,-23.2 87.49,-25.13 86.42,-18.21"/>
</g>
</g>
</svg>
