<?xml version="1.0" encoding="UTF-8" standalone="no"?>
<!DOCTYPE svg PUBLIC "-//W3C//DTD SVG 1.1//EN"
 "http://www.w3.org/Graphics/SVG/1.1/DTD/svg11.dtd">
<!-- Generated by graphviz version 2.43.0 (0)
 -->
<!-- Title: core/Type.hpp Pages: 1 -->
<svg width="1331pt" height="252pt"
 viewBox="0.00 0.00 1331.00 252.00" xmlns="http://www.w3.org/2000/svg" xmlns:xlink="http://www.w3.org/1999/xlink">
<g id="graph0" class="graph" transform="scale(1 1) rotate(0) translate(4 248)">
<title>core/Type.hpp</title>
<!-- Node1 -->
<g id="node1" class="node">
<title>Node1</title>
<g id="a_node1"><a xlink:title=" ">
<polygon fill="#bfbfbf" stroke="black" points="565,-224.5 565,-243.5 660,-243.5 660,-224.5 565,-224.5"/>
<text text-anchor="middle" x="612.5" y="-231.5" font-family="Consolas" font-size="10.00">core/Type.hpp</text>
</a>
</g>
</g>
<!-- Node2 -->
<g id="node2" class="node">
<title>Node2</title>
<g id="a_node2"><a xlink:href="Config_8hpp_source.html" target="_top" xlink:title=" ">
<polygon fill="none" stroke="black" points="439,-168.5 439,-187.5 546,-187.5 546,-168.5 439,-168.5"/>
<text text-anchor="middle" x="492.5" y="-175.5" font-family="Consolas" font-size="10.00">core/Config.hpp</text>
</a>
</g>
</g>
<!-- Node1&#45;&gt;Node2 -->
<g id="edge1" class="edge">
<title>Node1&#45;&gt;Node2</title>
<path fill="none" stroke="midnightblue" d="M584.13,-220.23C561.68,-210.13 530.96,-196.31 511.43,-187.52"/>
<polygon fill="midnightblue" stroke="midnightblue" points="582.93,-223.53 593.49,-224.44 585.8,-217.15 582.93,-223.53"/>
</g>
<!-- Node3 -->
<g id="node3" class="node">
<title>Node3</title>
<g id="a_node3"><a xlink:href="Transport_8hpp_source.html" target="_top" xlink:title=" ">
<polygon fill="none" stroke="black" points="459,-112.5 459,-131.5 584,-131.5 584,-112.5 459,-112.5"/>
<text text-anchor="middle" x="521.5" y="-119.5" font-family="Consolas" font-size="10.00">core/Transport.hpp</text>
</a>
</g>
</g>
<!-- Node1&#45;&gt;Node3 -->
<g id="edge16" class="edge">
<title>Node1&#45;&gt;Node3</title>
<path fill="none" stroke="midnightblue" d="M598.92,-216.59C579.3,-192.87 543.73,-149.87 528.61,-131.59"/>
<polygon fill="midnightblue" stroke="midnightblue" points="596.29,-218.89 605.36,-224.37 601.68,-214.43 596.29,-218.89"/>
</g>
<!-- Node4 -->
<g id="node4" class="node">
<title>Node4</title>
<g id="a_node4"><a xlink:href="Foundation_8hpp_source.html" target="_top" xlink:title=" ">
<polygon fill="none" stroke="black" points="620,-56.5 620,-75.5 751,-75.5 751,-56.5 620,-56.5"/>
<text text-anchor="middle" x="685.5" y="-63.5" font-family="Consolas" font-size="10.00">core/Foundation.hpp</text>
</a>
</g>
</g>
<!-- Node1&#45;&gt;Node4 -->
<g id="edge13" class="edge">
<title>Node1&#45;&gt;Node4</title>
<path fill="none" stroke="midnightblue" d="M611.49,-214.15C611,-189.15 613.12,-144.41 631.5,-112 640.53,-96.08 657.52,-83.36 670.04,-75.57"/>
<polygon fill="midnightblue" stroke="midnightblue" points="608,-214.55 611.87,-224.42 615,-214.3 608,-214.55"/>
</g>
<!-- Node14 -->
<g id="node14" class="node">
<title>Node14</title>
<g id="a_node14"><a xlink:href="Log_8hpp_source.html" target="_top" xlink:title=" ">
<polygon fill="none" stroke="black" points="641,-112.5 641,-131.5 730,-131.5 730,-112.5 641,-112.5"/>
<text text-anchor="middle" x="685.5" y="-119.5" font-family="Consolas" font-size="10.00">core/Log.hpp</text>
</a>
</g>
</g>
<!-- Node1&#45;&gt;Node14 -->
<g id="edge14" class="edge">
<title>Node1&#45;&gt;Node14</title>
<path fill="none" stroke="midnightblue" d="M623.81,-215.96C639.63,-192.12 667.78,-149.71 679.8,-131.59"/>
<polygon fill="midnightblue" stroke="midnightblue" points="620.84,-214.1 618.23,-224.37 626.67,-217.97 620.84,-214.1"/>
</g>
<!-- Node15 -->
<g id="node15" class="node">
<title>Node15</title>
<g id="a_node15"><a xlink:href="TransportReceiver_8hpp_source.html" target="_top" xlink:title=" ">
<polygon fill="none" stroke="black" points="679,-168.5 679,-187.5 852,-187.5 852,-168.5 679,-168.5"/>
<text text-anchor="middle" x="765.5" y="-175.5" font-family="Consolas" font-size="10.00">core/TransportReceiver.hpp</text>
</a>
</g>
</g>
<!-- Node1&#45;&gt;Node15 -->
<g id="edge17" class="edge">
<title>Node1&#45;&gt;Node15</title>
<path fill="none" stroke="midnightblue" d="M646.39,-221.04C675.18,-210.88 715.79,-196.55 741.37,-187.52"/>
<polygon fill="midnightblue" stroke="midnightblue" points="645.01,-217.81 636.74,-224.44 647.34,-224.42 645.01,-217.81"/>
</g>
<!-- Node2&#45;&gt;Node3 -->
<g id="edge2" class="edge">
<title>Node2&#45;&gt;Node3</title>
<path fill="none" stroke="midnightblue" d="M502.18,-158.98C507.1,-149.82 512.86,-139.09 516.8,-131.75"/>
<polygon fill="midnightblue" stroke="midnightblue" points="498.94,-157.62 497.29,-168.08 505.1,-160.93 498.94,-157.62"/>
</g>
<!-- Node3&#45;&gt;Node4 -->
<g id="edge3" class="edge">
<title>Node3&#45;&gt;Node4</title>
<path fill="none" stroke="midnightblue" d="M557.02,-109.3C587.92,-99.13 631.97,-84.62 659.64,-75.52"/>
<polygon fill="midnightblue" stroke="midnightblue" points="555.89,-105.99 547.49,-112.44 558.08,-112.64 555.89,-105.99"/>
</g>
<!-- Node5 -->
<g id="node5" class="node">
<title>Node5</title>
<g id="a_node5"><a xlink:href="BasicClient_8hpp_source.html" target="_top" xlink:title=" ">
<polygon fill="none" stroke="black" points="0,-0.5 0,-19.5 149,-19.5 149,-0.5 0,-0.5"/>
<text text-anchor="middle" x="74.5" y="-7.5" font-family="Consolas" font-size="10.00">common/BasicClient.hpp</text>
</a>
</g>
</g>
<!-- Node4&#45;&gt;Node5 -->
<g id="edge4" class="edge">
<title>Node4&#45;&gt;Node5</title>
<path fill="none" stroke="midnightblue" d="M609.33,-59.06C506.66,-50.93 318.18,-35.56 157.5,-20 154.76,-19.73 151.97,-19.46 149.15,-19.18"/>
<polygon fill="midnightblue" stroke="midnightblue" points="609.36,-62.57 619.6,-59.87 609.91,-55.6 609.36,-62.57"/>
</g>
<!-- Node6 -->
<g id="node6" class="node">
<title>Node6</title>
<g id="a_node6"><a xlink:href="ChainLog_8hpp_source.html" target="_top" xlink:title=" ">
<polygon fill="none" stroke="black" points="167,-0.5 167,-19.5 298,-19.5 298,-0.5 167,-0.5"/>
<text text-anchor="middle" x="232.5" y="-7.5" font-family="Consolas" font-size="10.00">common/ChainLog.hpp</text>
</a>
</g>
</g>
<!-- Node4&#45;&gt;Node6 -->
<g id="edge5" class="edge">
<title>Node4&#45;&gt;Node6</title>
<path fill="none" stroke="midnightblue" d="M609.74,-56.07C533.22,-47.03 411.64,-32.64 306.5,-20 303.8,-19.68 301.05,-19.34 298.27,-19.01"/>
<polygon fill="midnightblue" stroke="midnightblue" points="609.42,-59.56 619.76,-57.25 610.24,-52.6 609.42,-59.56"/>
</g>
<!-- Node7 -->
<g id="node7" class="node">
<title>Node7</title>
<g id="a_node7"><a xlink:href="ClientTable_8hpp_source.html" target="_top" xlink:title=" ">
<polygon fill="none" stroke="black" points="316,-0.5 316,-19.5 465,-19.5 465,-0.5 316,-0.5"/>
<text text-anchor="middle" x="390.5" y="-7.5" font-family="Consolas" font-size="10.00">common/ClientTable.hpp</text>
</a>
</g>
</g>
<!-- Node4&#45;&gt;Node7 -->
<g id="edge6" class="edge">
<title>Node4&#45;&gt;Node7</title>
<path fill="none" stroke="midnightblue" d="M628.69,-54.6C572.94,-44.4 488.94,-29.02 437.02,-19.52"/>
<polygon fill="midnightblue" stroke="midnightblue" points="628.29,-58.09 638.76,-56.44 629.55,-51.2 628.29,-58.09"/>
</g>
<!-- Node8 -->
<g id="node8" class="node">
<title>Node8</title>
<g id="a_node8"><a xlink:href="ListLog_8hpp_source.html" target="_top" xlink:title=" ">
<polygon fill="none" stroke="black" points="483,-0.5 483,-19.5 608,-19.5 608,-0.5 483,-0.5"/>
<text text-anchor="middle" x="545.5" y="-7.5" font-family="Consolas" font-size="10.00">common/ListLog.hpp</text>
</a>
</g>
</g>
<!-- Node4&#45;&gt;Node8 -->
<g id="edge7" class="edge">
<title>Node4&#45;&gt;Node8</title>
<path fill="none" stroke="midnightblue" d="M653.8,-52.77C627.5,-42.63 590.78,-28.47 567.58,-19.52"/>
<polygon fill="midnightblue" stroke="midnightblue" points="652.73,-56.11 663.32,-56.44 655.25,-49.58 652.73,-56.11"/>
</g>
<!-- Node9 -->
<g id="node9" class="node">
<title>Node9</title>
<g id="a_node9"><a xlink:href="Quorum_8hpp_source.html" target="_top" xlink:title=" ">
<polygon fill="none" stroke="black" points="626,-0.5 626,-19.5 745,-19.5 745,-0.5 626,-0.5"/>
<text text-anchor="middle" x="685.5" y="-7.5" font-family="Consolas" font-size="10.00">common/Quorum.hpp</text>
</a>
</g>
</g>
<!-- Node4&#45;&gt;Node9 -->
<g id="edge8" class="edge">
<title>Node4&#45;&gt;Node9</title>
<path fill="none" stroke="midnightblue" d="M685.5,-45.8C685.5,-36.91 685.5,-26.78 685.5,-19.75"/>
<polygon fill="midnightblue" stroke="midnightblue" points="682,-46.08 685.5,-56.08 689,-46.08 682,-46.08"/>
</g>
<!-- Node10 -->
<g id="node10" class="node">
<title>Node10</title>
<g id="a_node10"><a xlink:href="StatefulTimeout_8hpp_source.html" target="_top" xlink:title=" ">
<polygon fill="none" stroke="black" points="763,-0.5 763,-19.5 936,-19.5 936,-0.5 763,-0.5"/>
<text text-anchor="middle" x="849.5" y="-7.5" font-family="Consolas" font-size="10.00">common/StatefulTimeout.hpp</text>
</a>
</g>
</g>
<!-- Node4&#45;&gt;Node10 -->
<g id="edge9" class="edge">
<title>Node4&#45;&gt;Node10</title>
<path fill="none" stroke="midnightblue" d="M721.02,-53.3C751.92,-43.13 795.97,-28.62 823.64,-19.52"/>
<polygon fill="midnightblue" stroke="midnightblue" points="719.89,-49.99 711.49,-56.44 722.08,-56.64 719.89,-49.99"/>
</g>
<!-- Node11 -->
<g id="node11" class="node">
<title>Node11</title>
<g id="a_node11"><a xlink:href="Mock_8hpp_source.html" target="_top" xlink:title=" ">
<polygon fill="none" stroke="black" points="954,-0.5 954,-19.5 1043,-19.5 1043,-0.5 954,-0.5"/>
<text text-anchor="middle" x="998.5" y="-7.5" font-family="Consolas" font-size="10.00">app/Mock.hpp</text>
</a>
</g>
</g>
<!-- Node4&#45;&gt;Node11 -->
<g id="edge10" class="edge">
<title>Node4&#45;&gt;Node11</title>
<path fill="none" stroke="midnightblue" d="M745.31,-54.68C806.12,-44.19 898.95,-28.17 953.7,-18.73"/>
<polygon fill="midnightblue" stroke="midnightblue" points="744.36,-51.29 735.1,-56.44 745.55,-58.19 744.36,-51.29"/>
</g>
<!-- Node12 -->
<g id="node12" class="node">
<title>Node12</title>
<g id="a_node12"><a xlink:href="Null_8hpp_source.html" target="_top" xlink:title=" ">
<polygon fill="none" stroke="black" points="1061,-0.5 1061,-19.5 1150,-19.5 1150,-0.5 1061,-0.5"/>
<text text-anchor="middle" x="1105.5" y="-7.5" font-family="Consolas" font-size="10.00">app/Null.hpp</text>
</a>
</g>
</g>
<!-- Node4&#45;&gt;Node12 -->
<g id="edge11" class="edge">
<title>Node4&#45;&gt;Node12</title>
<path fill="none" stroke="midnightblue" d="M761.46,-56.72C835.77,-48.38 952.1,-34.67 1052.5,-20 1055.27,-19.6 1058.12,-19.16 1060.99,-18.71"/>
<polygon fill="midnightblue" stroke="midnightblue" points="760.8,-53.27 751.26,-57.86 761.58,-60.23 760.8,-53.27"/>
</g>
<!-- Node13 -->
<g id="node13" class="node">
<title>Node13</title>
<g id="a_node13"><a xlink:href="Simulated_8hpp_source.html" target="_top" xlink:title=" ">
<polygon fill="none" stroke="black" points="1168,-0.5 1168,-19.5 1323,-19.5 1323,-0.5 1168,-0.5"/>
<text text-anchor="middle" x="1245.5" y="-7.5" font-family="Consolas" font-size="10.00">transport/Simulated.hpp</text>
</a>
</g>
</g>
<!-- Node4&#45;&gt;Node13 -->
<g id="edge12" class="edge">
<title>Node4&#45;&gt;Node13</title>
<path fill="none" stroke="midnightblue" d="M761.3,-58.03C854.9,-49.37 1018.97,-34.02 1159.5,-20 1162.19,-19.73 1164.92,-19.46 1167.69,-19.18"/>
<polygon fill="midnightblue" stroke="midnightblue" points="760.71,-54.57 751.08,-58.98 761.36,-61.54 760.71,-54.57"/>
</g>
<!-- Node14&#45;&gt;Node4 -->
<g id="edge15" class="edge">
<title>Node14&#45;&gt;Node4</title>
<path fill="none" stroke="midnightblue" d="M685.5,-101.8C685.5,-92.91 685.5,-82.78 685.5,-75.75"/>
<polygon fill="midnightblue" stroke="midnightblue" points="682,-102.08 685.5,-112.08 689,-102.08 682,-102.08"/>
</g>
<!-- Node15&#45;&gt;Node4 -->
<g id="edge20" class="edge">
<title>Node15&#45;&gt;Node4</title>
<path fill="none" stroke="midnightblue" d="M760.44,-158.61C756.08,-144.9 748.84,-126.18 738.5,-112 727.54,-96.98 710.59,-83.75 698.82,-75.59"/>
<polygon fill="midnightblue" stroke="midnightblue" points="757.13,-159.76 763.32,-168.35 763.84,-157.77 757.13,-159.76"/>
</g>
<!-- Node16 -->
<g id="node16" class="node">
<title>Node16</title>
<g id="a_node16"><a xlink:href="Client_8hpp_source.html" target="_top" xlink:title=" ">
<polygon fill="none" stroke="black" points="787,-112.5 787,-131.5 894,-131.5 894,-112.5 787,-112.5"/>
<text text-anchor="middle" x="840.5" y="-119.5" font-family="Consolas" font-size="10.00">core/Client.hpp</text>
</a>
</g>
</g>
<!-- Node15&#45;&gt;Node16 -->
<g id="edge18" class="edge">
<title>Node15&#45;&gt;Node16</title>
<path fill="none" stroke="midnightblue" d="M785.81,-162.38C799.36,-152.62 816.74,-140.11 828.23,-131.83"/>
<polygon fill="midnightblue" stroke="midnightblue" points="783.62,-159.64 777.55,-168.32 787.71,-165.32 783.62,-159.64"/>
</g>
<!-- Node16&#45;&gt;Node4 -->
<g id="edge19" class="edge">
<title>Node16&#45;&gt;Node4</title>
<path fill="none" stroke="midnightblue" d="M806.17,-109.04C777,-98.88 735.86,-84.55 709.95,-75.52"/>
<polygon fill="midnightblue" stroke="midnightblue" points="805.34,-112.46 815.94,-112.44 807.65,-105.85 805.34,-112.46"/>
</g>
</g>
</svg>
