<?xml version="1.0" encoding="UTF-8" standalone="no"?>
<!DOCTYPE svg PUBLIC "-//W3C//DTD SVG 1.1//EN"
 "http://www.w3.org/Graphics/SVG/1.1/DTD/svg11.dtd">
<!-- Generated by graphviz version 2.43.0 (0)
 -->
<!-- Title: core/Type.hpp Pages: 1 -->
<svg width="1194pt" height="252pt"
 viewBox="0.00 0.00 1194.00 252.00" xmlns="http://www.w3.org/2000/svg" xmlns:xlink="http://www.w3.org/1999/xlink">
<g id="graph0" class="graph" transform="scale(1 1) rotate(0) translate(4 248)">
<title>core/Type.hpp</title>
<!-- Node1 -->
<g id="node1" class="node">
<title>Node1</title>
<g id="a_node1"><a xlink:title=" ">
<polygon fill="#bfbfbf" stroke="black" points="508,-224.5 508,-243.5 603,-243.5 603,-224.5 508,-224.5"/>
<text text-anchor="middle" x="555.5" y="-231.5" font-family="Consolas" font-size="10.00">core/Type.hpp</text>
</a>
</g>
</g>
<!-- Node2 -->
<g id="node2" class="node">
<title>Node2</title>
<g id="a_node2"><a xlink:href="Config_8hpp_source.html" target="_top" xlink:title=" ">
<polygon fill="none" stroke="black" points="382,-168.5 382,-187.5 489,-187.5 489,-168.5 382,-168.5"/>
<text text-anchor="middle" x="435.5" y="-175.5" font-family="Consolas" font-size="10.00">core/Config.hpp</text>
</a>
</g>
</g>
<!-- Node1&#45;&gt;Node2 -->
<g id="edge1" class="edge">
<title>Node1&#45;&gt;Node2</title>
<path fill="none" stroke="midnightblue" d="M527.13,-220.23C504.68,-210.13 473.96,-196.31 454.43,-187.52"/>
<polygon fill="midnightblue" stroke="midnightblue" points="525.93,-223.53 536.49,-224.44 528.8,-217.15 525.93,-223.53"/>
</g>
<!-- Node3 -->
<g id="node3" class="node">
<title>Node3</title>
<g id="a_node3"><a xlink:href="Transport_8hpp_source.html" target="_top" xlink:title=" ">
<polygon fill="none" stroke="black" points="402,-112.5 402,-131.5 527,-131.5 527,-112.5 402,-112.5"/>
<text text-anchor="middle" x="464.5" y="-119.5" font-family="Consolas" font-size="10.00">core/Transport.hpp</text>
</a>
</g>
</g>
<!-- Node1&#45;&gt;Node3 -->
<g id="edge15" class="edge">
<title>Node1&#45;&gt;Node3</title>
<path fill="none" stroke="midnightblue" d="M541.92,-216.59C522.3,-192.87 486.73,-149.87 471.61,-131.59"/>
<polygon fill="midnightblue" stroke="midnightblue" points="539.29,-218.89 548.36,-224.37 544.68,-214.43 539.29,-218.89"/>
</g>
<!-- Node4 -->
<g id="node4" class="node">
<title>Node4</title>
<g id="a_node4"><a xlink:href="Foundation_8hpp_source.html" target="_top" xlink:title=" ">
<polygon fill="none" stroke="black" points="563,-56.5 563,-75.5 694,-75.5 694,-56.5 563,-56.5"/>
<text text-anchor="middle" x="628.5" y="-63.5" font-family="Consolas" font-size="10.00">core/Foundation.hpp</text>
</a>
</g>
</g>
<!-- Node1&#45;&gt;Node4 -->
<g id="edge12" class="edge">
<title>Node1&#45;&gt;Node4</title>
<path fill="none" stroke="midnightblue" d="M554.49,-214.15C554,-189.15 556.12,-144.41 574.5,-112 583.53,-96.08 600.52,-83.36 613.04,-75.57"/>
<polygon fill="midnightblue" stroke="midnightblue" points="551,-214.55 554.87,-224.42 558,-214.3 551,-214.55"/>
</g>
<!-- Node13 -->
<g id="node13" class="node">
<title>Node13</title>
<g id="a_node13"><a xlink:href="Log_8hpp_source.html" target="_top" xlink:title=" ">
<polygon fill="none" stroke="black" points="584,-112.5 584,-131.5 673,-131.5 673,-112.5 584,-112.5"/>
<text text-anchor="middle" x="628.5" y="-119.5" font-family="Consolas" font-size="10.00">core/Log.hpp</text>
</a>
</g>
</g>
<!-- Node1&#45;&gt;Node13 -->
<g id="edge13" class="edge">
<title>Node1&#45;&gt;Node13</title>
<path fill="none" stroke="midnightblue" d="M566.81,-215.96C582.63,-192.12 610.78,-149.71 622.8,-131.59"/>
<polygon fill="midnightblue" stroke="midnightblue" points="563.84,-214.1 561.23,-224.37 569.67,-217.97 563.84,-214.1"/>
</g>
<!-- Node14 -->
<g id="node14" class="node">
<title>Node14</title>
<g id="a_node14"><a xlink:href="TransportReceiver_8hpp_source.html" target="_top" xlink:title=" ">
<polygon fill="none" stroke="black" points="622,-168.5 622,-187.5 795,-187.5 795,-168.5 622,-168.5"/>
<text text-anchor="middle" x="708.5" y="-175.5" font-family="Consolas" font-size="10.00">core/TransportReceiver.hpp</text>
</a>
</g>
</g>
<!-- Node1&#45;&gt;Node14 -->
<g id="edge16" class="edge">
<title>Node1&#45;&gt;Node14</title>
<path fill="none" stroke="midnightblue" d="M589.39,-221.04C618.18,-210.88 658.79,-196.55 684.37,-187.52"/>
<polygon fill="midnightblue" stroke="midnightblue" points="588.01,-217.81 579.74,-224.44 590.34,-224.42 588.01,-217.81"/>
</g>
<!-- Node2&#45;&gt;Node3 -->
<g id="edge2" class="edge">
<title>Node2&#45;&gt;Node3</title>
<path fill="none" stroke="midnightblue" d="M445.18,-158.98C450.1,-149.82 455.86,-139.09 459.8,-131.75"/>
<polygon fill="midnightblue" stroke="midnightblue" points="441.94,-157.62 440.29,-168.08 448.1,-160.93 441.94,-157.62"/>
</g>
<!-- Node3&#45;&gt;Node4 -->
<g id="edge3" class="edge">
<title>Node3&#45;&gt;Node4</title>
<path fill="none" stroke="midnightblue" d="M500.02,-109.3C530.92,-99.13 574.97,-84.62 602.64,-75.52"/>
<polygon fill="midnightblue" stroke="midnightblue" points="498.89,-105.99 490.49,-112.44 501.08,-112.64 498.89,-105.99"/>
</g>
<!-- Node5 -->
<g id="node5" class="node">
<title>Node5</title>
<g id="a_node5"><a xlink:href="BasicClient_8hpp_source.html" target="_top" xlink:title=" ">
<polygon fill="none" stroke="black" points="0,-0.5 0,-19.5 149,-19.5 149,-0.5 0,-0.5"/>
<text text-anchor="middle" x="74.5" y="-7.5" font-family="Consolas" font-size="10.00">common/BasicClient.hpp</text>
</a>
</g>
</g>
<!-- Node4&#45;&gt;Node5 -->
<g id="edge4" class="edge">
<title>Node4&#45;&gt;Node5</title>
<path fill="none" stroke="midnightblue" d="M552.78,-58.07C459.69,-49.47 296.92,-34.22 157.5,-20 154.76,-19.72 151.97,-19.43 149.15,-19.14"/>
<polygon fill="midnightblue" stroke="midnightblue" points="552.67,-61.57 562.95,-59 553.31,-54.6 552.67,-61.57"/>
</g>
<!-- Node6 -->
<g id="node6" class="node">
<title>Node6</title>
<g id="a_node6"><a xlink:href="ChainLog_8hpp_source.html" target="_top" xlink:title=" ">
<polygon fill="none" stroke="black" points="167,-0.5 167,-19.5 298,-19.5 298,-0.5 167,-0.5"/>
<text text-anchor="middle" x="232.5" y="-7.5" font-family="Consolas" font-size="10.00">common/ChainLog.hpp</text>
</a>
</g>
</g>
<!-- Node4&#45;&gt;Node6 -->
<g id="edge5" class="edge">
<title>Node4&#45;&gt;Node6</title>
<path fill="none" stroke="midnightblue" d="M555.48,-55.04C480.68,-44.84 365.65,-29.16 294.95,-19.52"/>
<polygon fill="midnightblue" stroke="midnightblue" points="555.37,-58.56 565.75,-56.44 556.32,-51.62 555.37,-58.56"/>
</g>
<!-- Node7 -->
<g id="node7" class="node">
<title>Node7</title>
<g id="a_node7"><a xlink:href="ClientTable_8hpp_source.html" target="_top" xlink:title=" ">
<polygon fill="none" stroke="black" points="316,-0.5 316,-19.5 465,-19.5 465,-0.5 316,-0.5"/>
<text text-anchor="middle" x="390.5" y="-7.5" font-family="Consolas" font-size="10.00">common/ClientTable.hpp</text>
</a>
</g>
</g>
<!-- Node4&#45;&gt;Node7 -->
<g id="edge6" class="edge">
<title>Node4&#45;&gt;Node7</title>
<path fill="none" stroke="midnightblue" d="M580.98,-54.22C536,-44.01 469.4,-28.9 428.04,-19.52"/>
<polygon fill="midnightblue" stroke="midnightblue" points="580.26,-57.64 590.79,-56.44 581.81,-50.82 580.26,-57.64"/>
</g>
<!-- Node8 -->
<g id="node8" class="node">
<title>Node8</title>
<g id="a_node8"><a xlink:href="ListLog_8hpp_source.html" target="_top" xlink:title=" ">
<polygon fill="none" stroke="black" points="483,-0.5 483,-19.5 608,-19.5 608,-0.5 483,-0.5"/>
<text text-anchor="middle" x="545.5" y="-7.5" font-family="Consolas" font-size="10.00">common/ListLog.hpp</text>
</a>
</g>
</g>
<!-- Node4&#45;&gt;Node8 -->
<g id="edge7" class="edge">
<title>Node4&#45;&gt;Node8</title>
<path fill="none" stroke="midnightblue" d="M606.4,-50.62C591.24,-40.76 571.62,-27.99 558.8,-19.65"/>
<polygon fill="midnightblue" stroke="midnightblue" points="604.87,-53.8 615.16,-56.32 608.69,-47.94 604.87,-53.8"/>
</g>
<!-- Node9 -->
<g id="node9" class="node">
<title>Node9</title>
<g id="a_node9"><a xlink:href="StatefulTimeout_8hpp_source.html" target="_top" xlink:title=" ">
<polygon fill="none" stroke="black" points="626,-0.5 626,-19.5 799,-19.5 799,-0.5 626,-0.5"/>
<text text-anchor="middle" x="712.5" y="-7.5" font-family="Consolas" font-size="10.00">common/StatefulTimeout.hpp</text>
</a>
</g>
</g>
<!-- Node4&#45;&gt;Node9 -->
<g id="edge8" class="edge">
<title>Node4&#45;&gt;Node9</title>
<path fill="none" stroke="midnightblue" d="M650.43,-50.9C665.84,-41 685.95,-28.07 699.04,-19.65"/>
<polygon fill="midnightblue" stroke="midnightblue" points="648.52,-47.97 642,-56.32 652.3,-53.86 648.52,-47.97"/>
</g>
<!-- Node10 -->
<g id="node10" class="node">
<title>Node10</title>
<g id="a_node10"><a xlink:href="Mock_8hpp_source.html" target="_top" xlink:title=" ">
<polygon fill="none" stroke="black" points="817,-0.5 817,-19.5 906,-19.5 906,-0.5 817,-0.5"/>
<text text-anchor="middle" x="861.5" y="-7.5" font-family="Consolas" font-size="10.00">app/Mock.hpp</text>
</a>
</g>
</g>
<!-- Node4&#45;&gt;Node10 -->
<g id="edge9" class="edge">
<title>Node4&#45;&gt;Node10</title>
<path fill="none" stroke="midnightblue" d="M675.3,-54.15C719.33,-43.95 784.35,-28.88 824.75,-19.52"/>
<polygon fill="midnightblue" stroke="midnightblue" points="674.37,-50.78 665.42,-56.44 675.95,-57.6 674.37,-50.78"/>
</g>
<!-- Node11 -->
<g id="node11" class="node">
<title>Node11</title>
<g id="a_node11"><a xlink:href="Null_8hpp_source.html" target="_top" xlink:title=" ">
<polygon fill="none" stroke="black" points="924,-0.5 924,-19.5 1013,-19.5 1013,-0.5 924,-0.5"/>
<text text-anchor="middle" x="968.5" y="-7.5" font-family="Consolas" font-size="10.00">app/Null.hpp</text>
</a>
</g>
</g>
<!-- Node4&#45;&gt;Node11 -->
<g id="edge10" class="edge">
<title>Node4&#45;&gt;Node11</title>
<path fill="none" stroke="midnightblue" d="M694.25,-54.93C752.44,-45.97 839.67,-32.38 915.5,-20 918.26,-19.55 921.11,-19.08 923.97,-18.6"/>
<polygon fill="midnightblue" stroke="midnightblue" points="693.44,-51.52 684.09,-56.5 694.51,-58.44 693.44,-51.52"/>
</g>
<!-- Node12 -->
<g id="node12" class="node">
<title>Node12</title>
<g id="a_node12"><a xlink:href="Simulated_8hpp_source.html" target="_top" xlink:title=" ">
<polygon fill="none" stroke="black" points="1031,-0.5 1031,-19.5 1186,-19.5 1186,-0.5 1031,-0.5"/>
<text text-anchor="middle" x="1108.5" y="-7.5" font-family="Consolas" font-size="10.00">transport/Simulated.hpp</text>
</a>
</g>
</g>
<!-- Node4&#45;&gt;Node12 -->
<g id="edge11" class="edge">
<title>Node4&#45;&gt;Node12</title>
<path fill="none" stroke="midnightblue" d="M704.36,-56.47C794.25,-46.35 943.12,-29.61 1032.9,-19.51"/>
<polygon fill="midnightblue" stroke="midnightblue" points="703.78,-53.01 694.24,-57.6 704.56,-59.96 703.78,-53.01"/>
</g>
<!-- Node13&#45;&gt;Node4 -->
<g id="edge14" class="edge">
<title>Node13&#45;&gt;Node4</title>
<path fill="none" stroke="midnightblue" d="M628.5,-101.8C628.5,-92.91 628.5,-82.78 628.5,-75.75"/>
<polygon fill="midnightblue" stroke="midnightblue" points="625,-102.08 628.5,-112.08 632,-102.08 625,-102.08"/>
</g>
<!-- Node14&#45;&gt;Node4 -->
<g id="edge19" class="edge">
<title>Node14&#45;&gt;Node4</title>
<path fill="none" stroke="midnightblue" d="M703.44,-158.61C699.08,-144.9 691.84,-126.18 681.5,-112 670.54,-96.98 653.59,-83.75 641.82,-75.59"/>
<polygon fill="midnightblue" stroke="midnightblue" points="700.13,-159.76 706.32,-168.35 706.84,-157.77 700.13,-159.76"/>
</g>
<!-- Node15 -->
<g id="node15" class="node">
<title>Node15</title>
<g id="a_node15"><a xlink:href="Client_8hpp_source.html" target="_top" xlink:title=" ">
<polygon fill="none" stroke="black" points="730,-112.5 730,-131.5 837,-131.5 837,-112.5 730,-112.5"/>
<text text-anchor="middle" x="783.5" y="-119.5" font-family="Consolas" font-size="10.00">core/Client.hpp</text>
</a>
</g>
</g>
<!-- Node14&#45;&gt;Node15 -->
<g id="edge17" class="edge">
<title>Node14&#45;&gt;Node15</title>
<path fill="none" stroke="midnightblue" d="M728.81,-162.38C742.36,-152.62 759.74,-140.11 771.23,-131.83"/>
<polygon fill="midnightblue" stroke="midnightblue" points="726.62,-159.64 720.55,-168.32 730.71,-165.32 726.62,-159.64"/>
</g>
<!-- Node15&#45;&gt;Node4 -->
<g id="edge18" class="edge">
<title>Node15&#45;&gt;Node4</title>
<path fill="none" stroke="midnightblue" d="M749.17,-109.04C720,-98.88 678.86,-84.55 652.95,-75.52"/>
<polygon fill="midnightblue" stroke="midnightblue" points="748.34,-112.46 758.94,-112.44 750.65,-105.85 748.34,-112.46"/>
</g>
</g>
</svg>
