<?xml version="1.0" encoding="UTF-8" standalone="no"?>
<!DOCTYPE svg PUBLIC "-//W3C//DTD SVG 1.1//EN"
 "http://www.w3.org/Graphics/SVG/1.1/DTD/svg11.dtd">
<!-- Generated by graphviz version 2.43.0 (0)
 -->
<!-- Title: core/Type.hpp Pages: 1 -->
<svg width="287pt" height="95pt"
 viewBox="0.00 0.00 287.00 95.00" xmlns="http://www.w3.org/2000/svg" xmlns:xlink="http://www.w3.org/1999/xlink">
<g id="graph0" class="graph" transform="scale(1 1) rotate(0) translate(4 91)">
<title>core/Type.hpp</title>
<!-- Node1 -->
<g id="node1" class="node">
<title>Node1</title>
<g id="a_node1"><a xlink:title=" ">
<polygon fill="#bfbfbf" stroke="black" points="50,-67.5 50,-86.5 145,-86.5 145,-67.5 50,-67.5"/>
<text text-anchor="middle" x="97.5" y="-74.5" font-family="Consolas" font-size="10.00">core/Type.hpp</text>
</a>
</g>
</g>
<!-- Node2 -->
<g id="node2" class="node">
<title>Node2</title>
<g id="a_node2"><a xlink:title=" ">
<polygon fill="none" stroke="#bfbfbf" points="0,-6 0,-25 59,-25 59,-6 0,-6"/>
<text text-anchor="middle" x="29.5" y="-13" font-family="Consolas" font-size="10.00">cstdint</text>
</a>
</g>
</g>
<!-- Node1&#45;&gt;Node2 -->
<g id="edge1" class="edge">
<title>Node1&#45;&gt;Node2</title>
<path fill="none" stroke="midnightblue" d="M87.76,-67.48C77.15,-58.2 59.98,-43.17 47.02,-31.83"/>
<polygon fill="midnightblue" stroke="midnightblue" points="49.06,-28.96 39.22,-25.01 44.45,-34.23 49.06,-28.96"/>
</g>
<!-- Node3 -->
<g id="node3" class="node">
<title>Node3</title>
<g id="a_node3"><a xlink:title=" ">
<polygon fill="none" stroke="#bfbfbf" points="77,-6 77,-25 118,-25 118,-6 77,-6"/>
<text text-anchor="middle" x="97.5" y="-13" font-family="Consolas" font-size="10.00">span</text>
</a>
</g>
</g>
<!-- Node1&#45;&gt;Node3 -->
<g id="edge2" class="edge">
<title>Node1&#45;&gt;Node3</title>
<path fill="none" stroke="midnightblue" d="M97.5,-67.48C97.5,-59.08 97.5,-45.98 97.5,-35.16"/>
<polygon fill="midnightblue" stroke="midnightblue" points="101,-35.01 97.5,-25.01 94,-35.01 101,-35.01"/>
</g>
<!-- Node4 -->
<g id="node4" class="node">
<title>Node4</title>
<g id="a_node4"><a xlink:title=" ">
<polygon fill="none" stroke="#bfbfbf" points="136,-0.5 136,-30.5 279,-30.5 279,-0.5 136,-0.5"/>
<text text-anchor="start" x="144" y="-18.5" font-family="Consolas" font-size="10.00">boost/container/small</text>
<text text-anchor="middle" x="207.5" y="-7.5" font-family="Consolas" font-size="10.00">_vector.hpp</text>
</a>
</g>
</g>
<!-- Node1&#45;&gt;Node4 -->
<g id="edge3" class="edge">
<title>Node1&#45;&gt;Node4</title>
<path fill="none" stroke="midnightblue" d="M113.26,-67.48C128.72,-59.12 152.8,-46.09 172.75,-35.3"/>
<polygon fill="midnightblue" stroke="midnightblue" points="174.44,-38.36 181.58,-30.52 171.11,-32.2 174.44,-38.36"/>
</g>
</g>
</svg>
